<?xml version="1.0" encoding="UTF-8"?>
<!DOCTYPE svg PUBLIC "-//W3C//DTD SVG 1.1//EN" "http://www.w3.org/Graphics/SVG/1.1/DTD/svg11.dtd">
<svg xmlns="http://www.w3.org/2000/svg" version="1.1" width="231px" height="208px" style="shape-rendering:geometricPrecision; text-rendering:geometricPrecision; image-rendering:optimizeQuality; fill-rule:evenodd; clip-rule:evenodd" xmlns:xlink="http://www.w3.org/1999/xlink">
<g><path style="opacity:1" fill="#fdfdfe" d="M -0.5,-0.5 C 76.5,-0.5 153.5,-0.5 230.5,-0.5C 230.5,68.8333 230.5,138.167 230.5,207.5C 153.5,207.5 76.5,207.5 -0.5,207.5C -0.5,138.167 -0.5,68.8333 -0.5,-0.5 Z"/></g>
<g><path style="opacity:1" fill="#5885b0" d="M 117.5,37.5 C 118.117,37.6107 118.617,37.944 119,38.5C 119.579,40.6487 120.079,42.8154 120.5,45C 120.613,46.6991 119.947,47.8658 118.5,48.5C 118.649,47.448 118.483,46.448 118,45.5C 113.256,48.9284 110.923,47.9284 111,42.5C 112.777,40.2101 114.944,38.5434 117.5,37.5 Z"/></g>
<g><path style="opacity:1" fill="#f9fbfd" d="M 116.5,38.5 C 117.461,40.2646 117.795,42.2646 117.5,44.5C 116.167,44.5 114.833,44.5 113.5,44.5C 113.615,42.0532 114.615,40.0532 116.5,38.5 Z"/></g>
<g><path style="opacity:1" fill="#f5862c" d="M 117.5,37.5 C 114.944,38.5434 112.777,40.2101 111,42.5C 110.923,47.9284 113.256,48.9284 118,45.5C 118.483,46.448 118.649,47.448 118.5,48.5C 116.986,51.2572 114.652,52.4239 111.5,52C 111.833,51.6667 112.167,51.3333 112.5,51C 105.72,49.1396 104.72,45.4729 109.5,40C 112.927,38.5687 115.76,36.402 118,33.5C 118.195,34.8193 118.028,36.1526 117.5,37.5 Z"/></g>
<g><path style="opacity:1" fill="#0f6aab" d="M 127.5,52.5 C 131.182,52.3347 134.848,52.5014 138.5,53C 133.221,57.1867 127.221,58.5201 120.5,57C 123.239,55.9741 125.572,54.4741 127.5,52.5 Z"/></g>
<g><path style="opacity:1" fill="#126bab" d="M 117.5,52.5 C 118.152,53.4486 118.486,54.6153 118.5,56C 116.976,70.8336 115.476,85.6669 114,100.5C 113,101.833 112,101.833 111,100.5C 110.5,85.1703 110.333,69.837 110.5,54.5C 113.152,54.5905 115.485,53.9238 117.5,52.5 Z"/></g>
<g><path style="opacity:1" fill="#5195c3" d="M 145.5,53.5 C 146.826,67.0058 146.826,80.6724 145.5,94.5C 144.893,94.3764 144.56,94.0431 144.5,93.5C 145.496,80.3438 145.829,67.0105 145.5,53.5 Z"/></g>
<g><path style="opacity:1" fill="#1a6cac" d="M 145.5,53.5 C 145.829,67.0105 145.496,80.3438 144.5,93.5C 142.883,92.962 141.216,92.6287 139.5,92.5C 139.741,79.4202 140.908,66.4202 143,53.5C 143.977,52.2264 144.811,52.2264 145.5,53.5 Z"/></g>
<g><path style="opacity:1" fill="#176cac" d="M 126.5,61.5 C 133.339,61.1059 136.672,64.4393 136.5,71.5C 136.333,72.8333 136.167,74.1667 136,75.5C 124.242,93.3009 123.409,111.634 133.5,130.5C 131.748,133.672 129.748,136.672 127.5,139.5C 114.133,116.603 115.8,94.9358 132.5,74.5C 130.761,74.4062 128.761,74.2395 126.5,74C 123.87,69.8344 123.87,65.6678 126.5,61.5 Z"/></g>
<g><path style="opacity:1" fill="#2872af" d="M 138.5,95.5 C 144.326,95.157 146.826,97.8236 146,103.5C 140.91,106.905 137.91,111.571 137,117.5C 134.838,111.63 136.338,106.796 141.5,103C 139.372,101.013 138.372,98.513 138.5,95.5 Z"/></g>
<g><path style="opacity:1" fill="#4d88bc" d="M 121.5,163.5 C 122.496,163.414 123.329,163.748 124,164.5C 124.346,166.218 124.846,167.885 125.5,169.5C 123.288,170.938 121.288,172.605 119.5,174.5C 119.167,174.333 118.833,174.167 118.5,174C 122.045,171.696 122.711,169.029 120.5,166C 120.743,165.098 121.077,164.265 121.5,163.5 Z"/></g>
<g><path style="opacity:1" fill="#3075b1" d="M 191.5,164.5 C 192.873,164.343 194.207,164.51 195.5,165C 187.684,167.825 180.184,171.325 173,175.5C 172.333,174.833 172.333,174.167 173,173.5C 179.028,170.069 185.195,167.069 191.5,164.5 Z"/></g>
<g><path style="opacity:1" fill="#518fc0" d="M 42.5,163.5 C 45.128,164.625 45.9613,166.625 45,169.5C 44.3448,167.372 43.5114,165.372 42.5,163.5 Z"/></g>
<g><path style="opacity:1" fill="#498bbe" d="M 218.5,163.5 C 221.128,164.625 221.961,166.625 221,169.5C 220.345,167.372 219.511,165.372 218.5,163.5 Z"/></g>
<g><path style="opacity:1" fill="#377ab4" d="M 132.5,166.5 C 138.638,166.63 138.971,168.297 133.5,171.5C 133.167,171.333 132.833,171.167 132.5,171C 133.328,170.085 134.328,169.419 135.5,169C 133.881,168.764 132.881,167.931 132.5,166.5 Z"/></g>
<g><path style="opacity:1" fill="#4587bc" d="M 171.5,166.5 C 177.702,166.875 177.869,168.541 172,171.5C 171.5,171.333 171,171.167 170.5,171C 174.272,169.611 174.272,168.611 170.5,168C 171.056,167.617 171.389,167.117 171.5,166.5 Z"/></g>
<g><path style="opacity:1" fill="#2e75b1" d="M 64.5,163.5 C 66.3786,163.393 66.7119,163.893 65.5,165C 58.307,167.846 51.4736,171.346 45,175.5C 44.3828,174.551 44.5494,173.718 45.5,173C 51.6832,169.341 58.0166,166.174 64.5,163.5 Z"/></g>
<g><path style="opacity:1" fill="#397ab4" d="M 91.5,165.5 C 92.5,165.5 93.5,165.5 94.5,165.5C 93.8654,168.493 93.6987,171.493 94,174.5C 94.9147,173.672 95.5814,172.672 96,171.5C 96.7789,173.906 95.9456,175.573 93.5,176.5C 92.52,173.914 92.1866,171.247 92.5,168.5C 83.8737,169.7 75.707,172.366 68,176.5C 69.0699,173.788 71.2366,171.955 74.5,171C 80.254,169.025 85.9207,167.192 91.5,165.5 Z"/></g>
<g><path style="opacity:1" fill="#2d73b0" d="M 201.5,165.5 C 206.134,164.559 207.301,165.893 205,169.5C 204.612,168.572 203.945,167.905 203,167.5C 194.464,169.788 186.297,172.621 178.5,176C 185.579,171.037 193.246,167.537 201.5,165.5 Z"/></g>
<g><path style="opacity:1" fill="#367ab4" d="M 216.5,176.5 C 216.557,175.391 216.89,174.391 217.5,173.5C 220.122,171.005 223.122,170.005 226.5,170.5C 224.176,171.662 221.842,172.829 219.5,174C 218.809,175.067 218.309,176.234 218,177.5C 217.617,176.944 217.117,176.611 216.5,176.5 Z"/></g>
<g><path style="opacity:1" fill="#1367a9" d="M 30.5,168.5 C 31.1031,170.19 32.1031,171.69 33.5,173C 32.9747,173.692 32.3081,174.192 31.5,174.5C 30.5344,172.604 30.2011,170.604 30.5,168.5 Z"/></g>
<g><path style="opacity:1" fill="#2a73b0" d="M 106.5,165.5 C 109.58,167.781 110.247,170.781 108.5,174.5C 110.25,180.861 110.417,187.194 109,193.5C 107.988,184.176 107.155,174.843 106.5,165.5 Z"/></g>
<g><path style="opacity:1" fill="#3174b1" d="M 159.5,166.5 C 161.527,166.338 163.527,166.505 165.5,167C 164.833,167.667 164.167,168.333 163.5,169C 148.575,172.061 134.242,175.894 120.5,180.5C 121.364,178.803 122.697,177.637 124.5,177C 136.152,173.01 147.819,169.51 159.5,166.5 Z"/></g>
<g><path style="opacity:1" fill="#4a88bd" d="M 203.5,170.5 C 204.158,171.398 204.824,172.398 205.5,173.5C 206.396,172.494 207.062,172.494 207.5,173.5C 206.992,175.904 205.825,176.571 204,175.5C 203.506,173.866 203.34,172.199 203.5,170.5 Z"/></g>
<g><path style="opacity:1" fill="#387ab5" d="M 163.5,175.5 C 164.675,175.281 165.675,175.614 166.5,176.5C 164.176,177.662 161.842,178.829 159.5,180C 158.809,181.067 158.309,182.234 158,183.5C 156.77,182.725 156.437,181.725 157,180.5C 158.965,178.45 161.132,176.783 163.5,175.5 Z"/></g>
<g><path style="opacity:1" fill="#427fb8" d="M 148.5,176.5 C 150.213,177.635 150.88,179.302 150.5,181.5C 149.167,181.5 147.833,181.5 146.5,181.5C 146.392,179.486 147.058,177.82 148.5,176.5 Z"/></g>
<g><path style="opacity:1" fill="#3277b3" d="M 203.5,178.5 C 206.569,178.963 207.069,180.296 205,182.5C 202.628,181.683 202.128,180.35 203.5,178.5 Z"/></g>
<g><path style="opacity:1" fill="#3879b4" d="M 113.5,178.5 C 116.861,179.203 117.194,180.537 114.5,182.5C 112.358,181.563 112.024,180.23 113.5,178.5 Z"/></g>
<g><path style="opacity:1" fill="#5f95c4" d="M 140.5,176.5 C 142.326,178.437 142.493,180.437 141,182.5C 139.2,180.635 139.034,178.635 140.5,176.5 Z"/></g>
<g><path style="opacity:1" fill="#7fabd0" d="M 197.5,176.5 C 198.675,176.281 199.675,176.614 200.5,177.5C 199.752,179.332 198.752,180.999 197.5,182.5C 196.5,180.833 195.167,179.5 193.5,178.5C 194.868,177.406 196.035,177.74 197,179.5C 197.483,178.552 197.649,177.552 197.5,176.5 Z"/></g>
<g><path style="opacity:1" fill="#3579b3" d="M 219.5,178.5 C 222.569,178.963 223.069,180.296 221,182.5C 218.628,181.683 218.128,180.35 219.5,178.5 Z"/></g>
<g><path style="opacity:1" fill="#4987bc" d="M 30.5,180.5 C 31.8333,180.5 33.1667,180.5 34.5,180.5C 34.8238,183.68 33.4904,184.847 30.5,184C 31.1667,183.667 31.8333,183.333 32.5,183C 31.244,182.583 30.5774,181.75 30.5,180.5 Z"/></g>
<g><path style="opacity:1" fill="#4281b8" d="M 187.5,178.5 C 189.225,178.843 189.725,179.843 189,181.5C 187.149,183.336 184.983,184.17 182.5,184C 181.269,182.817 181.269,181.651 182.5,180.5C 184.264,183.177 185.43,182.844 186,179.5C 187.087,181.932 187.587,181.598 187.5,178.5 Z"/></g>
<g><path style="opacity:1" fill="#3879b4" d="M 131.5,181.5 C 134.861,182.203 135.194,183.537 132.5,185.5C 130.358,184.563 130.024,183.23 131.5,181.5 Z"/></g>
<g><path style="opacity:1" fill="#2e74b1" d="M 174.5,182.5 C 177.569,182.963 178.069,184.296 176,186.5C 173.988,185.434 173.488,184.1 174.5,182.5 Z"/></g>
<g><path style="opacity:1" fill="#1d6dad" d="M 169.5,182.5 C 172.569,182.963 173.069,184.296 171,186.5C 169.812,185.437 169.312,184.103 169.5,182.5 Z"/></g>
<g><path style="opacity:1" fill="#256fae" d="M 113.5,184.5 C 115.355,184.272 116.188,184.939 116,186.5C 113.366,187.692 112.532,187.026 113.5,184.5 Z"/></g>
<g><path style="opacity:1" fill="#8dbbd8" d="M 215.5,172.5 C 216.167,172.833 216.833,173.167 217.5,173.5C 216.89,174.391 216.557,175.391 216.5,176.5C 216.5,180.833 216.5,185.167 216.5,189.5C 215.511,184.025 215.178,178.358 215.5,172.5 Z"/></g>
<g><path style="opacity:1" fill="#2e73b0" d="M 222.5,182.5 C 225.569,182.963 226.069,184.296 224,186.5C 221.743,186.665 219.576,186.165 217.5,185C 219.175,184.015 220.842,183.181 222.5,182.5 Z"/></g>
<g><path style="opacity:1" fill="#1c6bab" d="M 123.5,184.5 C 124.207,186.231 125.207,187.897 126.5,189.5C 125.675,190.386 124.675,190.719 123.5,190.5C 123.5,188.5 123.5,186.5 123.5,184.5 Z"/></g>
<g><path style="opacity:1" fill="#6fa0ca" d="M 181.5,185.5 C 182.103,187.19 183.103,188.69 184.5,190C 182.285,193.462 180.952,193.128 180.5,189C 180.648,187.744 180.982,186.577 181.5,185.5 Z"/></g>
<g><path style="opacity:1" fill="#377db6" d="M 166.5,195.5 C 166.599,192.327 165.932,189.327 164.5,186.5C 164.833,185.833 165.167,185.167 165.5,184.5C 166.993,186.364 167.66,188.53 167.5,191C 167.492,192.707 167.158,194.207 166.5,195.5 Z"/></g>
<g><path style="opacity:1" fill="#3376b2" d="M 207.5,181.5 C 208.496,181.414 209.329,181.748 210,182.5C 211.46,186.798 210.126,189.798 206,191.5C 203.581,197.577 199.081,201.077 192.5,202C 189.833,202.667 187.167,202.667 184.5,202C 190.736,200.255 196.736,197.922 202.5,195C 203.357,194.311 204.023,193.478 204.5,192.5C 202.604,191.534 200.604,191.201 198.5,191.5C 198.665,183.826 201.165,182.826 206,188.5C 206.772,188.355 207.439,188.022 208,187.5C 208.18,185.512 208.014,183.512 207.5,181.5 Z"/></g>
<g><path style="opacity:1" fill="#2e74b1" d="M 29.5,188.5 C 30.5,188.5 31.5,188.5 32.5,188.5C 32.719,189.675 32.3857,190.675 31.5,191.5C 30.6043,190.494 29.9377,190.494 29.5,191.5C 31.2358,194.105 33.0692,194.105 35,191.5C 35.6667,192.167 35.6667,192.833 35,193.5C 25.6993,199.668 23.866,198.002 29.5,188.5 Z"/></g>
<g><path style="opacity:1" fill="#327fb7" d="M 160.5,189.5 C 161.914,191.044 162.247,192.711 161.5,194.5C 160.548,192.955 160.215,191.288 160.5,189.5 Z"/></g>
<g><path style="opacity:1" fill="#246ead" d="M 215.5,172.5 C 215.178,178.358 215.511,184.025 216.5,189.5C 215.554,194.894 217.554,196.561 222.5,194.5C 222.833,192.5 223.167,190.5 223.5,188.5C 226.021,191.176 226.021,194.01 223.5,197C 221.045,198.631 218.545,198.797 216,197.5C 214.804,188.582 213.971,179.582 213.5,170.5C 213.667,169.5 213.833,168.5 214,167.5C 215.269,168.905 215.769,170.571 215.5,172.5 Z"/></g>
<g><path style="opacity:1" fill="#2972b0" d="M 99.5,165.5 C 101.043,166.736 102.043,168.402 102.5,170.5C 102.302,178.109 102.136,185.776 102,193.5C 100.253,197.421 97.4192,198.421 93.5,196.5C 91.4902,198.171 89.1569,198.838 86.5,198.5C 86.719,197.325 86.3857,196.325 85.5,195.5C 76.4212,198.736 67.0878,199.902 57.5,199C 55.6942,198.19 54.1942,197.024 53,195.5C 50.2835,196.282 47.9502,197.616 46,199.5C 42.7565,198.592 40.4232,196.592 39,193.5C 38.3129,184.827 37.9796,176.16 38,167.5C 39.8004,175.639 40.8004,183.973 41,192.5C 41.3076,193.308 41.8076,193.975 42.5,194.5C 42.5938,192.761 42.7605,190.761 43,188.5C 44.2991,187.02 45.9658,186.354 48,186.5C 52.5144,187.726 57.0144,189.06 61.5,190.5C 59.8474,192.121 57.8474,193.288 55.5,194C 56.5505,195.385 57.8839,196.385 59.5,197C 68.7554,197.311 77.7554,195.811 86.5,192.5C 87.3857,193.325 87.719,194.325 87.5,195.5C 88.8333,195.5 90.1667,195.5 91.5,195.5C 91.245,192.01 92.5783,189.343 95.5,187.5C 97.6945,189.315 98.0278,191.482 96.5,194C 97.7839,194.684 98.9505,194.517 100,193.5C 100.402,184.16 100.235,174.827 99.5,165.5 Z"/></g>
<g><path style="opacity:1" fill="#f1f6fa" d="M 93.5,190.5 C 95.4646,190.948 95.7979,191.948 94.5,193.5C 93.6143,192.675 93.281,191.675 93.5,190.5 Z"/></g>
<g><path style="opacity:1" fill="#e6eff6" d="M 45.5,188.5 C 57.2786,190.419 57.2786,192.752 45.5,195.5C 44.5615,193.09 44.5615,190.756 45.5,188.5 Z"/></g>
<g><path style="opacity:1" fill="#3c81b8" d="M 85.5,182.5 C 88.3892,182.999 89.0558,184.499 87.5,187C 86.552,187.483 85.552,187.649 84.5,187.5C 84.366,185.708 84.6993,184.042 85.5,182.5 Z"/></g>
<g><path style="opacity:1" fill="#3f80b8" d="M 80.5,175.5 C 84.8057,176.066 85.139,176.732 81.5,177.5C 80.4672,185.363 76.1339,190.196 68.5,192C 72.3135,189.353 75.6469,186.187 78.5,182.5C 77.6249,180.227 75.9582,179.227 73.5,179.5C 73.5,178.5 73.5,177.5 73.5,176.5C 76.6421,176.799 78.8088,178.466 80,181.5C 80.4955,179.527 80.6621,177.527 80.5,175.5 Z"/></g>
<g><path style="opacity:1" fill="#3a79b4" d="M 91.5,180.5 C 92.5862,180.62 93.2528,181.287 93.5,182.5C 92.6964,184.957 91.6964,184.957 90.5,182.5C 90.8627,181.817 91.1961,181.15 91.5,180.5 Z"/></g>
<g><path style="opacity:1" fill="#2c76b2" d="M 64.5,180.5 C 65.8333,180.5 67.1667,180.5 68.5,180.5C 68.5046,184 66.8379,185.5 63.5,185C 67.2721,183.611 67.2721,182.611 63.5,182C 64.056,181.617 64.3893,181.117 64.5,180.5 Z"/></g>
<g><path style="opacity:1" fill="#4584ba" d="M 55.5,174.5 C 56.675,174.281 57.675,174.614 58.5,175.5C 57.0361,178.066 55.8695,180.733 55,183.5C 54.1253,180.785 52.2919,179.452 49.5,179.5C 49.238,178.022 49.5713,176.689 50.5,175.5C 51.8149,177.316 53.3149,178.983 55,180.5C 55.4955,178.527 55.6621,176.527 55.5,174.5 Z"/></g>
<g><path style="opacity:1" fill="#2a7bb5" d="M 66.5,168.5 C 68.0878,169.635 68.4212,170.969 67.5,172.5C 66.5713,171.311 66.238,169.978 66.5,168.5 Z"/></g>
<g><path style="opacity:1" fill="#2972b0" d="M 138.5,186.5 C 144.023,186.562 145.856,189.229 144,194.5C 142.421,196.041 140.587,197.208 138.5,198C 135.633,198.029 133.133,198.862 131,200.5C 130.151,195.985 128.318,195.485 125.5,199C 123.167,199.667 120.833,199.667 118.5,199C 117.044,197.255 115.711,195.422 114.5,193.5C 112.563,195.792 110.896,198.292 109.5,201C 107.112,201.865 105.612,201.032 105,198.5C 104.333,196.167 104.333,193.833 105,191.5C 105.333,193.5 105.667,195.5 106,197.5C 106.689,198.357 107.522,199.023 108.5,199.5C 109.785,196.429 111.451,193.596 113.5,191C 114.5,190.333 115.5,190.333 116.5,191C 119.563,197.775 123.563,198.275 128.5,192.5C 129.333,193.5 130.167,194.5 131,195.5C 133.335,192.335 135.835,189.335 138.5,186.5 Z"/></g>
<g><path style="opacity:1" fill="#ebf2f8" d="M 137.5,189.5 C 141.029,188.889 142.862,190.223 143,193.5C 140.037,195.244 136.871,195.744 133.5,195C 134.665,193.008 135.998,191.175 137.5,189.5 Z"/></g>
<g><path style="opacity:1" fill="#3175b1" d="M 151.5,184.5 C 157.639,188.559 157.972,193.059 152.5,198C 147.229,201.205 141.563,202.539 135.5,202C 141.512,200.442 147.179,198.109 152.5,195C 153.357,194.311 154.023,193.478 154.5,192.5C 152.604,191.534 150.604,191.201 148.5,191.5C 148.166,188.509 149.166,186.176 151.5,184.5 Z"/></g>
<g><path style="opacity:1" fill="#3377b3" d="M 166.5,195.5 C 166.272,197.355 166.939,198.188 168.5,198C 169.395,194.374 171.395,191.54 174.5,189.5C 175.92,191.22 177.253,193.054 178.5,195C 182.926,195.791 187.259,195.457 191.5,194C 191.818,191.958 191.985,189.791 192,187.5C 195.551,191.208 195.051,194.375 190.5,197C 186.259,198.457 181.926,198.791 177.5,198C 176.044,196.255 174.711,194.422 173.5,192.5C 171.986,195.528 169.986,198.195 167.5,200.5C 166.311,200.244 165.144,199.911 164,199.5C 158.863,202.493 153.363,203.66 147.5,203C 152.604,201.465 157.604,199.632 162.5,197.5C 163.308,195.577 163.808,193.577 164,191.5C 164.122,193.437 164.955,194.77 166.5,195.5 Z"/></g>
<g><path style="opacity:1" fill="#3a7bb5" d="M 50.5,198.5 C 52.0481,198.821 52.7148,199.821 52.5,201.5C 53.675,201.281 54.675,201.614 55.5,202.5C 54.3112,203.429 52.9778,203.762 51.5,203.5C 51.3713,201.784 51.038,200.117 50.5,198.5 Z"/></g>
<g><path style="opacity:1" fill="#1668aa" d="M 73.5,200.5 C 77.31,201.754 77.31,202.754 73.5,203.5C 73.5,202.5 73.5,201.5 73.5,200.5 Z"/></g>
<g><path style="opacity:1" fill="#266ead" d="M 78.5,200.5 C 79.5,200.5 80.5,200.5 81.5,200.5C 81.5,201.5 81.5,202.5 81.5,203.5C 80.5,203.5 79.5,203.5 78.5,203.5C 78.5,202.5 78.5,201.5 78.5,200.5 Z"/></g>
<g><path style="opacity:1" fill="#3074b1" d="M 175.5,200.5 C 178.275,200.834 178.941,202.167 177.5,204.5C 176.5,204 175.5,203.5 174.5,203C 175.252,202.329 175.586,201.496 175.5,200.5 Z"/></g>
<g><path style="opacity:1" fill="#1b6cac" d="M 180.5,200.5 C 182.476,201.427 182.809,202.76 181.5,204.5C 179.358,203.563 179.024,202.23 180.5,200.5 Z"/></g>
<g><path style="opacity:1" fill="#669ac7" d="M 97.5,199.5 C 98.9405,201.42 98.6071,203.087 96.5,204.5C 95.707,203.645 96.0403,202.811 97.5,202C 96.4019,201.23 96.4019,200.397 97.5,199.5 Z"/></g>
<g><path style="opacity:1" fill="#4c8bbe" d="M 204.5,200.5 C 205.376,200.369 206.043,200.702 206.5,201.5C 203.617,202.738 200.783,204.072 198,205.5C 197.312,204.668 197.479,204.002 198.5,203.5C 200.78,202.864 202.78,201.864 204.5,200.5 Z"/></g>
</svg>
